# xmcd
#
# Track frame offsets: 
#        150
#        12086
#        25193
#        34618
#        46002
#        59130
#        69778
#        83266
#        94639
#        104480
#        114141
#        123270
#        134852
#        146702
#        159117
#        175185
#        189013
#        201416
#        213188
#        229577
#        242075
#        255573
#        269468
#        285778
#        300201
#        320746
#
# Disc length: 4555 seconds
#
# Revision: 2
# Processed by: cddbd v1.5.2PL0 Copyright (c) Steve Scherf et al.
# Submitted via: ExactAudioCopy v1.1
#
DISCID=4f11c91a
DTITLE=Lee 'Shot' Williams - Chicago Blues and Deep Soul Legend
DYEAR=1994
DGENRE=Blues
TTITLE0=I'm Trying (mono)
TTITLE1=Hello, Baby (mono)
TTITLE2=I'm Tore Up (mono)
TTITLE3=They Told A Lie (mono)
TTITLE4=You're Welcome To The Club (mono)
TTITLE5=Hold Me, Hold, Me, Hold Me (mono)
TTITLE6=When You Move, You Lose (mono)
TTITLE7=Don't Misuse My Love (mono)
TTITLE8=The Millionaire (mono)
TTITLE9=I'm in Love (mono)
TTITLE10=I Hurt Myself (mono)
TTITLE11=I Like Your Style (mono)
TTITLE12=I Fell An Urge Coming On (mono)
TTITLE13=You Are My Dream (mono)
TTITLE14=I Found A Love (mono)
TTITLE15=It Ain't Me (mono)
TTITLE16=Baby, Baby (mono)
TTITLE17=Checking Out (mono)
TTITLE18=You Got To Try Me (mono)
TTITLE19=It Ain't Me No More (mono)
TTITLE20=Chokin' Kind (mono)
TTITLE21=Since I Fell For You (mono)
TTITLE22=Are You Leaving Me (mono)
TTITLE23=Drop The Laundry (mono)
TTITLE24=The Love You Saved (mono)
TTITLE25=On The Love Flight (mono)
EXTD=
EXTT0=
EXTT1=
EXTT2=
EXTT3=
EXTT4=
EXTT5=
EXTT6=
EXTT7=
EXTT8=
EXTT9=
EXTT10=
EXTT11=
EXTT12=
EXTT13=
EXTT14=
EXTT15=
EXTT16=
EXTT17=
EXTT18=
EXTT19=
EXTT20=
EXTT21=
EXTT22=
EXTT23=
EXTT24=
EXTT25=
PLAYORDER=
